<?xml version="1.0" standalone="no"?>
<!DOCTYPE svg PUBLIC "-//W3C//DTD SVG 20010904//EN"
 "http://www.w3.org/TR/2001/REC-SVG-20010904/DTD/svg10.dtd">
<svg version="1.0" xmlns="http://www.w3.org/2000/svg"
 width="205.000000pt" height="78.000000pt" viewBox="0 0 205.000000 78.000000"
 preserveAspectRatio="xMidYMid meet">

<g transform="translate(0.000000,78.000000) scale(0.100000,-0.100000)"
fill="#000000" stroke="none">
<path d="M1681 569 c-66 -13 -91 -33 -91 -74 0 -41 2 -42 41 -14 41 29 101 36
122 14 27 -26 20 -41 -25 -54 -114 -33 -158 -75 -142 -135 12 -50 94 -72 155
-40 28 14 32 14 48 0 20 -19 51 -20 104 -5 31 8 37 14 37 38 0 22 -4 27 -22
27 -22 -1 -23 3 -28 96 -6 111 -18 133 -86 148 -45 11 -54 11 -113 -1z m99
-183 c0 -47 -33 -86 -74 -86 -52 0 -75 41 -40 71 16 13 91 47 107 48 4 1 7
-14 7 -33z"/>
<path d="M452 560 c-18 -4 -41 -15 -51 -24 -23 -21 -31 -20 -31 4 0 17 -7 20
-50 20 l-50 0 0 -155 0 -155 53 0 52 0 -3 88 c-3 82 -2 89 22 115 26 28 64 35
84 15 8 -8 12 -48 12 -115 l0 -103 55 0 55 0 0 114 c0 63 -4 126 -10 140 -17
45 -78 70 -138 56z"/>
<path d="M758 561 c-142 -28 -176 -205 -57 -293 38 -28 132 -34 202 -14 55 16
57 18 57 51 0 41 3 39 -43 20 -57 -24 -119 -20 -151 10 -14 13 -26 29 -26 35
0 6 40 10 110 10 l110 0 0 43 c0 98 -90 159 -202 138z m84 -78 c10 -9 18 -24
18 -35 0 -15 -8 -18 -60 -18 -53 0 -60 2 -60 19 0 23 36 51 64 51 11 0 28 -7
38 -17z"/>
<path d="M1190 563 c-14 -3 -37 -14 -52 -25 -28 -19 -28 -19 -28 1 0 19 -6 21
-55 21 l-55 0 0 -155 0 -155 55 0 55 0 0 93 c0 80 3 96 20 115 24 25 62 29 80
7 8 -10 12 -49 12 -115 l0 -100 56 0 57 0 -3 88 c-3 82 -2 89 22 115 26 28 64
35 84 15 8 -8 12 -48 12 -115 l0 -103 56 0 56 0 -4 129 c-3 110 -6 132 -22
150 -41 45 -134 45 -181 1 l-24 -23 -31 27 c-17 14 -38 26 -45 26 -7 0 -19 2
-27 4 -7 2 -24 1 -38 -1z"/>
<path d="M120 405 l0 -155 55 0 55 0 0 155 0 155 -55 0 -55 0 0 -155z"/>
<path d="M140 191 c0 -5 5 -13 10 -16 6 -3 10 -2 10 4 0 5 -4 13 -10 16 -5 3
-10 2 -10 -4z"/>
<path d="M430 196 c0 -2 7 -7 16 -10 8 -3 12 -2 9 4 -6 10 -25 14 -25 6z"/>
<path d="M497 194 c-10 -10 -9 -62 1 -68 4 -2 6 11 4 30 -4 32 10 47 21 24 3
-6 4 -5 3 2 -3 14 -20 21 -29 12z"/>
<path d="M545 191 c-3 -7 0 -8 9 -5 10 4 16 -3 19 -23 l5 -28 -2 29 c-1 30
-19 45 -31 27z"/>
<path d="M610 185 c0 -8 4 -15 10 -15 5 0 7 7 4 15 -4 8 -8 15 -10 15 -2 0 -4
-7 -4 -15z"/>
<path d="M652 180 c0 -14 2 -19 5 -12 2 6 2 18 0 25 -3 6 -5 1 -5 -13z"/>
<path d="M745 191 c-3 -7 0 -8 9 -5 20 8 22 -35 4 -56 -11 -12 -10 -12 5 0 11
8 17 23 15 38 -3 27 -22 40 -33 23z"/>
<path d="M862 180 c0 -14 2 -19 5 -12 2 6 2 18 0 25 -3 6 -5 1 -5 -13z"/>
<path d="M896 191 c-4 -7 -5 -15 -2 -18 9 -9 19 4 14 18 -4 11 -6 11 -12 0z"/>
<path d="M926 192 c-2 -4 4 -8 14 -8 10 0 16 4 14 8 -3 4 -9 8 -14 8 -5 0 -11
-4 -14 -8z"/>
<path d="M992 163 c2 -22 9 -38 18 -40 11 -3 12 -2 2 4 -7 5 -10 23 -8 41 2
18 -1 32 -6 32 -5 0 -8 -17 -6 -37z"/>
<path d="M1090 165 c0 -19 2 -35 4 -35 2 0 6 16 8 35 2 19 0 35 -4 35 -4 0 -8
-16 -8 -35z"/>
<path d="M1182 163 c2 -22 9 -38 18 -40 11 -3 12 -2 2 4 -7 5 -10 23 -8 41 2
18 -1 32 -6 32 -5 0 -8 -17 -6 -37z"/>
<path d="M1510 196 c0 -2 7 -7 16 -10 8 -3 12 -2 9 4 -6 10 -25 14 -25 6z"/>
<path d="M1612 165 c0 -22 2 -32 5 -22 2 9 8 17 13 17 5 0 11 -8 13 -17 3 -10
5 0 5 22 0 22 -2 32 -5 23 -2 -10 -8 -18 -13 -18 -5 0 -11 8 -13 18 -3 9 -5
-1 -5 -23z"/>
<path d="M1690 196 c0 -2 7 -7 16 -10 8 -3 12 -2 9 4 -6 10 -25 14 -25 6z"/>
<path d="M1750 189 c11 -8 12 -12 3 -16 -7 -2 -13 -10 -13 -16 0 -6 7 -4 16 5
17 17 12 38 -9 38 -7 0 -6 -4 3 -11z"/>
<path d="M1805 179 c-10 -30 -2 -32 12 -3 6 13 7 24 3 24 -5 0 -12 -9 -15 -21z"/>
<path d="M1850 196 c0 -2 7 -7 16 -10 8 -3 12 -2 9 4 -6 10 -25 14 -25 6z"/>
<path d="M1035 180 c3 -5 8 -10 11 -10 2 0 4 5 4 10 0 6 -5 10 -11 10 -5 0 -7
-4 -4 -10z"/>
<path d="M421 164 c0 -12 7 -28 17 -35 15 -12 16 -12 6 1 -7 8 -14 24 -17 35
-4 19 -5 19 -6 -1z"/>
<path d="M1321 164 c0 -12 7 -28 17 -35 15 -12 16 -12 6 1 -7 8 -14 24 -17 35
-4 19 -5 19 -6 -1z"/>
<path d="M1501 164 c0 -11 3 -14 6 -6 3 7 2 16 -1 19 -3 4 -6 -2 -5 -13z"/>
<path d="M1841 164 c-1 -12 5 -27 12 -33 14 -11 27 -5 27 13 0 6 -4 4 -10 -4
-8 -13 -9 -13 -14 0 -13 43 -14 44 -15 24z"/>
<path d="M208 158 c9 -9 9 -15 -1 -27 -11 -14 -10 -14 6 -2 13 10 15 17 6 27
-6 8 -14 14 -17 14 -3 0 -1 -5 6 -12z"/>
<path d="M1242 150 c0 -14 2 -19 5 -12 2 6 2 18 0 25 -3 6 -5 1 -5 -13z"/>
<path d="M1420 159 c0 -5 5 -7 10 -4 6 3 10 8 10 11 0 2 -4 4 -10 4 -5 0 -10
-5 -10 -11z"/>
<path d="M1907 159 c10 -10 10 -16 0 -28 -11 -14 -10 -14 6 -2 9 7 17 17 17
21 0 4 -8 11 -17 15 -14 5 -15 4 -6 -6z"/>
<path d="M171 144 c0 -11 3 -14 6 -6 3 7 2 16 -1 19 -3 4 -6 -2 -5 -13z"/>
<path d="M1061 144 c0 -11 3 -14 6 -6 3 7 2 16 -1 19 -3 4 -6 -2 -5 -13z"/>
<path d="M1710 141 c0 -7 -4 -9 -10 -6 -5 3 -10 1 -10 -4 0 -6 4 -11 9 -11 13
0 25 20 17 27 -3 4 -6 1 -6 -6z"/>
<path d="M346 128 c3 -5 10 -6 15 -3 13 9 11 12 -6 12 -8 0 -12 -4 -9 -9z"/>
<path d="M680 130 c0 -5 5 -10 11 -10 5 0 7 5 4 10 -3 6 -8 10 -11 10 -2 0 -4
-4 -4 -10z"/>
<path d="M1290 130 c0 -5 5 -10 11 -10 5 0 7 5 4 10 -3 6 -8 10 -11 10 -2 0
-4 -4 -4 -10z"/>
<path d="M1376 128 c3 -5 10 -6 15 -3 13 9 11 12 -6 12 -8 0 -12 -4 -9 -9z"/>
<path d="M1560 130 c-9 -6 -10 -10 -3 -10 6 0 15 5 18 10 8 12 4 12 -15 0z"/>
</g>
</svg>
